<mxfile host="app.diagrams.net" modified="2024-06-13T17:47:04.721Z" agent="Mozilla/5.0 (Windows NT 10.0; Win64; x64) AppleWebKit/537.36 (KHTML, like Gecko) Chrome/124.0.0.0 Safari/537.36" version="24.5.4" etag="OIQPIjMzJfCkoKKGuBC2" type="github">
  <diagram name="PÃ¡gina-1" id="ETvfB3xh4Qi0G8t4deMg">
    <mxGraphModel>
      <root>
        <mxCell id="0" />
        <mxCell id="1" parent="0" />
      </root>
    </mxGraphModel>
  </diagram>
</mxfile>
